# xmcd CD database file
#
# Track frame offsets:
#	150
#	21557
#	41617
#	57380
#	75030
#	92625
#	110840
#	132482
#	152880
#	159620
#	177317
#	198810
#
# Disc length: 2917 seconds
#
# Revision: 8
# Processed by: cddbd v1.5.2PL0 Copyright (c) Steve Scherf et al.
# Submitted via: CDex 1.51
#
DISCID=9c0b630c
DTITLE=Firehouse - Firehouse
DYEAR=1991
DGENRE=Rock
TTITLE0=Rock On The Radio
TTITLE1=All She Wrote
TTITLE2=Shake and Tumble
TTITLE3=Don't Treat Me Bad
TTITLE4=Oughta Be A Law
TTITLE5=Lover's Lane
TTITLE6=Home Is Where The Heart Is
TTITLE7=Don't Walk Away
TTITLE8=Seasons Of Change
TTITLE9=Overnight Sensation
TTITLE10=Love Of A Lifetime
TTITLE11=Helpless
EXTD=YEAR: 1991
EXTT0=
EXTT1=
EXTT2=
EXTT3=
EXTT4=
EXTT5=
EXTT6=
EXTT7=
EXTT8=
EXTT9=
EXTT10=
EXTT11=
PLAYORDER=
